<?xml version="1.0" encoding="utf-8"?>
<!-- Generator: Adobe Illustrator 24.1.2, SVG Export Plug-In . SVG Version: 6.00 Build 0)  -->
<svg version="1.1" id="Layer_1" xmlns="http://www.w3.org/2000/svg" xmlns:xlink="http://www.w3.org/1999/xlink" x="0px" y="0px"
	 viewBox="0 0 1622 1622" style="enable-background:new 0 0 1622 1622;" xml:space="preserve">
<style type="text/css">
	.st0{fill:#FFFFFF;}
</style>
<g id="NsiFpq.tif">
	<g>
		<path class="st0" d="M1622,1622c-540.67,0-1081.33,0-1622,0C0,1081.33,0,540.67,0,0c540.67,0,1081.33,0,1622,0
			C1622,540.67,1622,1081.33,1622,1622z M815.02,0.99c-23.14-0.33-42.43,0.11-61.71,1.72c-4.96,0.42-9.93,1.11-14.91,1.1
			c-4.85-0.01-9.63,0.79-14.38,1.35c-6.72,0.79-13.47,1.74-20.19,2.51c-8.23,0.95-16.45,2.08-24.59,3.46
			c-16.6,2.82-33.19,5.8-49.58,9.73c-13.8,3.3-27.58,6.66-41.21,10.64c-9.02,2.64-17.96,5.54-26.94,8.3
			c-23.22,7.15-45.8,15.97-68.18,25.34c-11.28,4.72-22.41,9.81-33.43,15.12c-10.15,4.89-20.3,9.82-30.16,15.3
			c-9.55,5.3-19.09,10.6-28.56,16.05c-13.94,8.02-27.53,16.57-40.85,25.52c-18.73,12.58-37.12,25.66-54.48,40.13
			c-8.4,7-17.2,13.55-25.4,20.77c-12.85,11.31-25.45,22.92-37.64,34.95c-15.61,15.41-30.69,31.33-45.09,47.87
			c-11.79,13.53-23.02,27.55-33.87,41.83c-16.01,21.08-30.82,43.02-44.68,65.57c-14.39,23.43-27.36,47.64-39.28,72.42
			c-10.54,21.93-19.94,44.34-28.49,67.12c-6.68,17.8-12.71,35.82-18.08,54.04c-4.85,16.45-9.22,33.05-12.85,49.84
			c-2.37,10.97-4.87,21.9-6.7,32.98c-1.18,7.16-2.6,14.29-3.74,21.46c-0.88,5.54-1.42,11.14-2.23,16.7
			c-0.9,6.08-1.72,12.15-2.21,18.28c-0.41,5.12-1.34,10.2-1.69,15.32c-0.41,5.97-0.59,12-1.29,17.89
			c-0.97,8.13-1.29,16.31-1.42,24.39c-0.38,23.96-1.12,47.94,0.47,71.92c0.69,10.43,1.23,20.87,2.08,31.3
			c1,12.23,2.35,24.4,3.96,36.57c1.76,13.29,3.75,26.53,6.16,39.7c2.86,15.59,6.22,31.08,9.92,46.51
			c5.39,22.52,11.83,44.74,19.32,66.61c9.16,26.72,19.48,53.02,31.5,78.65c8.15,17.38,16.63,34.57,25.85,51.39
			c9.41,17.14,19.51,33.86,30.11,50.31c12.05,18.69,24.8,36.88,38.45,54.41c17.15,22.02,35.24,43.26,54.56,63.44
			c12.75,13.32,25.86,26.26,39.41,38.75c10.51,9.69,21.34,18.98,32.37,28.08c7.94,6.55,15.89,13.08,24.11,19.25
			c11.52,8.65,23.2,17.08,35.11,25.21c11.34,7.74,22.84,15.22,34.51,22.41c14.8,9.12,29.96,17.62,45.44,25.58
			c12.37,6.36,24.77,12.62,37.35,18.54c21.09,9.93,42.7,18.62,64.61,26.54c21.13,7.63,42.58,14.32,64.27,20.15
			c16.73,4.5,33.6,8.49,50.6,11.85c8.08,1.6,16.25,2.81,24.35,4.29c6.99,1.28,14.07,2.04,21.06,3.25
			c9.63,1.66,19.36,2.46,29.04,3.59c9.22,1.08,18.54,1.6,27.81,2.34c9.79,0.78,19.61,0.89,29.4,1.61c7.46,0.55,14.99,0.18,22.49,0.2
			c18.65,0.03,37.32,0.26,55.93-1.23c5.64-0.45,11.33-0.37,16.91-1.2c5.1-0.76,10.26-0.72,15.37-1.39c2.94-0.39,5.85-1.36,8.84-1.19
			c4.37,0.25,8.6-0.81,12.87-1.26c8.05-0.85,15.99-2.57,24.02-3.65c13.91-1.86,27.67-4.58,41.37-7.48
			c16.62-3.51,33.12-7.61,49.47-12.29c16.84-4.82,33.58-9.95,50.07-15.86c12.58-4.51,25.14-9.1,37.48-14.2
			c12.83-5.3,25.49-11.02,38.06-16.94c13.04-6.14,25.89-12.6,38.61-19.32c16.84-8.9,33.17-18.67,49.29-28.85
			c16.96-10.7,33.43-22.05,49.59-33.89c11.37-8.34,22.35-17.17,33.25-26.12c10.78-8.85,21.32-17.96,31.6-27.36
			c13.6-12.44,26.69-25.4,39.47-38.7c11.05-11.5,21.6-23.44,31.95-35.55c13.6-15.91,26.52-32.37,38.74-49.37
			c12.28-17.09,23.96-34.57,34.87-52.58c7.22-11.91,14.21-23.94,20.84-36.19c9.05-16.74,17.58-33.74,25.41-51.07
			c7.21-15.95,13.87-32.14,20.02-48.55c8.06-21.51,15.28-43.28,21.55-65.37c4.88-17.17,9.2-34.5,12.83-51.97
			c1.94-9.37,3.88-18.75,5.33-28.23c0.72-4.73,1.41-9.48,2.25-14.18c1.02-5.71,1.85-11.45,2.59-17.2c0.8-6.24,1.65-12.46,2.25-18.73
			c0.58-6.11,1.17-12.23,1.87-18.32c0.62-5.47,0.22-11.04,1.12-16.4c1.3-7.77,1.16-15.61,1.41-23.35
			c0.68-20.64,0.71-41.33,0.15-61.98c-0.37-13.6-1.32-27.21-2.59-40.79c-0.79-8.42-1.4-16.89-2.47-25.26
			c-1.36-10.65-2.88-21.3-4.53-31.92c-1.64-10.6-3.37-21.2-5.46-31.69c-3.27-16.34-7.02-32.59-11.4-48.68
			c-3.99-14.66-8.39-29.18-13.06-43.65c-13.38-41.5-30.31-81.46-50.25-120.22c-10.61-20.63-22.05-40.78-34.45-60.35
			c-12.84-20.27-26.48-39.99-41.14-59.01c-12.49-16.2-25.38-32.05-38.95-47.34c-14.88-16.77-30.62-32.73-46.79-48.26
			c-10.19-9.79-20.85-19.06-31.4-28.46c-8.56-7.62-17.64-14.59-26.53-21.79c-10.3-8.35-21.11-16.08-31.88-23.82
			c-19.26-13.85-39.24-26.58-59.75-38.53c-16.89-9.84-34.06-19.11-51.58-27.79c-16.01-7.94-32.32-15.18-48.8-22.06
			c-26.97-11.26-54.57-20.75-82.61-28.96c-16.95-4.96-34.08-9.22-51.31-13.08c-14.52-3.25-29.16-5.82-43.79-8.49
			c-9.27-1.69-18.64-2.92-28-4.03c-12.68-1.5-25.39-2.9-38.12-3.93c-11.77-0.96-23.58-1.59-35.38-1.97
			C830.88,0.73,821.04,0.99,815.02,0.99z"/>
		<path d="M815.02,0.99c6.02,0,15.86-0.25,25.68,0.07c11.8,0.38,23.61,1.01,35.38,1.97c12.73,1.04,25.43,2.43,38.12,3.93
			c9.36,1.11,18.73,2.34,28,4.03c14.63,2.66,29.27,5.23,43.79,8.49c17.24,3.86,34.36,8.12,51.31,13.08
			c28.04,8.21,55.64,17.71,82.61,28.96c16.48,6.88,32.78,14.12,48.8,22.06c17.52,8.69,34.68,17.95,51.58,27.79
			c20.51,11.95,40.49,24.68,59.75,38.53c10.77,7.75,21.58,15.47,31.88,23.82c8.88,7.2,17.96,14.17,26.53,21.79
			c10.55,9.39,21.21,18.67,31.4,28.46c16.17,15.53,31.91,31.49,46.79,48.26c13.57,15.29,26.46,31.14,38.95,47.34
			c14.67,19.02,28.3,38.75,41.14,59.01c12.41,19.58,23.84,39.72,34.45,60.35c19.94,38.76,36.87,78.72,50.25,120.22
			c4.66,14.47,9.06,28.99,13.06,43.65c4.38,16.09,8.14,32.35,11.4,48.68c2.1,10.49,3.82,21.09,5.46,31.69
			c1.65,10.62,3.17,21.27,4.53,31.92c1.07,8.37,1.68,16.84,2.47,25.26c1.27,13.58,2.22,27.2,2.59,40.79
			c0.56,20.65,0.53,41.34-0.15,61.98c-0.26,7.74-0.11,15.58-1.41,23.35c-0.9,5.36-0.49,10.92-1.12,16.4
			c-0.69,6.1-1.29,12.21-1.87,18.32c-0.59,6.27-1.44,12.49-2.25,18.73c-0.74,5.75-1.57,11.49-2.59,17.2
			c-0.84,4.71-1.53,9.46-2.25,14.18c-1.45,9.48-3.39,18.86-5.33,28.23c-3.63,17.48-7.95,34.8-12.83,51.97
			c-6.28,22.09-13.49,43.86-21.55,65.37c-6.15,16.4-12.81,32.59-20.02,48.55c-7.83,17.33-16.36,34.34-25.41,51.07
			c-6.63,12.25-13.62,24.28-20.84,36.19c-10.91,18.01-22.59,35.49-34.87,52.58c-12.22,17-25.14,33.46-38.74,49.37
			c-10.35,12.11-20.9,24.05-31.95,35.55c-12.78,13.3-25.87,26.26-39.47,38.7c-10.28,9.4-20.82,18.51-31.6,27.36
			c-10.9,8.95-21.88,17.78-33.25,26.12c-16.15,11.84-32.63,23.19-49.59,33.89c-16.12,10.18-32.45,19.95-49.29,28.85
			c-12.72,6.73-25.57,13.19-38.61,19.32c-12.58,5.92-25.23,11.64-38.06,16.94c-12.34,5.1-24.9,9.7-37.48,14.2
			c-16.49,5.91-33.23,11.04-50.07,15.86c-16.35,4.68-32.85,8.78-49.47,12.29c-13.7,2.9-27.46,5.62-41.37,7.48
			c-8.03,1.07-15.98,2.8-24.02,3.65c-4.27,0.45-8.51,1.51-12.87,1.26c-2.98-0.17-5.9,0.8-8.84,1.19
			c-5.11,0.68-10.27,0.63-15.37,1.39c-5.58,0.83-11.27,0.75-16.91,1.2c-18.61,1.49-37.28,1.26-55.93,1.23
			c-7.5-0.01-15.03,0.35-22.49-0.2c-9.79-0.72-19.6-0.83-29.4-1.61c-9.27-0.74-18.58-1.27-27.81-2.34
			c-9.68-1.13-19.4-1.92-29.04-3.59c-6.99-1.21-14.07-1.97-21.06-3.25c-8.11-1.48-16.27-2.69-24.35-4.29
			c-17-3.36-33.87-7.36-50.6-11.85c-21.69-5.83-43.14-12.51-64.27-20.15c-21.91-7.92-43.52-16.6-64.61-26.54
			c-12.58-5.92-24.98-12.18-37.35-18.54c-15.49-7.96-30.64-16.46-45.44-25.58c-11.68-7.19-23.17-14.67-34.51-22.41
			c-11.91-8.13-23.59-16.56-35.11-25.21c-8.22-6.17-16.17-12.71-24.11-19.25c-11.03-9.09-21.87-18.39-32.37-28.08
			c-13.55-12.5-26.67-25.43-39.41-38.75c-19.31-20.19-37.41-41.43-54.56-63.44c-13.65-17.52-26.41-35.71-38.45-54.41
			c-10.6-16.45-20.7-33.17-30.11-50.31c-9.23-16.82-17.71-34.01-25.85-51.39c-12.01-25.63-22.34-51.93-31.5-78.65
			c-7.49-21.86-13.93-44.09-19.32-66.61c-3.69-15.43-7.05-30.91-9.92-46.51c-2.42-13.17-4.41-26.42-6.16-39.7
			c-1.61-12.17-2.97-24.34-3.96-36.57c-0.85-10.43-1.39-20.87-2.08-31.3c-1.59-23.97-0.85-47.96-0.47-71.92
			c0.13-8.07,0.45-16.26,1.42-24.39c0.7-5.89,0.88-11.92,1.29-17.89c0.35-5.12,1.28-10.2,1.69-15.32c0.49-6.13,1.32-12.2,2.21-18.28
			c0.82-5.55,1.35-11.15,2.23-16.7c1.14-7.17,2.56-14.29,3.74-21.46c1.82-11.08,4.33-22.01,6.7-32.98
			c3.63-16.79,7.99-33.39,12.85-49.84c5.37-18.22,11.41-36.24,18.08-54.04c8.55-22.78,17.94-45.2,28.49-67.12
			c11.91-24.78,24.88-48.99,39.28-72.42c13.86-22.56,28.67-44.49,44.68-65.57c10.85-14.29,22.07-28.3,33.87-41.83
			c14.41-16.54,29.48-32.46,45.09-47.87c12.19-12.03,24.79-23.64,37.64-34.95c8.2-7.22,17-13.77,25.4-20.77
			c17.36-14.47,35.75-27.55,54.48-40.13c13.32-8.95,26.91-17.51,40.85-25.52c9.47-5.45,19.01-10.75,28.56-16.05
			c9.87-5.48,20.01-10.41,30.16-15.3c11.01-5.31,22.15-10.4,33.43-15.12c22.38-9.37,44.96-18.19,68.18-25.34
			c8.98-2.76,17.92-5.67,26.94-8.3c13.63-3.98,27.41-7.33,41.21-10.64c16.39-3.93,32.98-6.91,49.58-9.73
			c8.14-1.38,16.35-2.52,24.59-3.46c6.72-0.77,13.47-1.72,20.19-2.51c4.75-0.56,9.52-1.37,14.38-1.35c4.98,0.01,9.95-0.68,14.91-1.1
			C772.59,1.09,791.88,0.66,815.02,0.99z M831.18,61.25c-163.93,0.66-297.33,38.56-419.1,115.12
			C303.57,244.6,217.91,335.22,155.55,447.32c-62.9,113.07-93.5,234.73-94.43,363.98c3.25,215.78,83.02,398.28,238.34,547.91
			c144.78,131.64,314.88,199.16,510.66,201.67c137.5-0.74,266.05-35.06,384.09-105.57c117.87-70.4,210.05-166.32,275.78-287.09
			c60.4-110.97,89.7-230.01,90.89-356.16c-2.7-208.63-77.26-387.17-224.19-535.41C1189.95,135.44,1014.54,64.17,831.18,61.25z"/>
		<path class="st0" d="M831.18,61.25c183.36,2.91,358.77,74.19,505.52,215.39c146.93,148.24,221.49,326.78,224.19,535.41
			c-1.19,126.15-30.49,245.19-90.89,356.16c-65.73,120.77-157.91,216.69-275.78,287.09c-118.05,70.5-246.59,104.82-384.09,105.57
			c-195.78-2.5-365.88-70.02-510.66-201.67C144.13,1209.57,64.36,1027.08,61.11,811.29c0.93-129.25,31.53-250.9,94.43-363.98
			c62.36-112.1,148.02-202.72,256.54-270.94C533.85,99.82,667.25,61.91,831.18,61.25z M217.37,769.93
			c-0.41-3.05-0.38-5.36-0.07-7.67c1.15-8.56,1.36-17.22,2.76-25.76c1.31-8.01,2.03-16.11,3.35-24.12
			c1.88-11.41,3.99-22.79,6.63-34.06c3.17-13.56,6.53-27.06,10.54-40.39c3.68-12.21,7.85-24.26,12.26-36.23
			c4.64-12.59,9.68-25.01,15.26-37.2c5.73-12.51,11.71-24.91,18.29-37.01c4.35-8,8.49-16.13,13.23-23.89
			c5.88-9.61,12.19-18.96,18.49-28.3c8.24-12.23,16.9-24.16,26.22-35.59c7.01-8.59,14.06-17.14,21.38-25.48
			c4.71-5.36,9.68-10.48,14.44-15.8c5.85-6.52,12.21-12.59,18.54-18.66c5.51-5.28,11.26-10.31,16.94-15.4
			c2.94-2.63,6.01-5.1,8.95-7.74c11.23-10.09,23.21-19.29,35.32-28.21c11.59-8.53,23.62-16.56,35.91-24.13
			c10.33-6.36,20.78-12.5,31.45-18.25c13.14-7.08,26.54-13.66,40.14-19.84c14.51-6.59,29.27-12.58,44.26-17.84
			c23.13-8.12,46.72-14.85,70.7-20.05c9.54-2.07,19.09-4.07,28.77-5.45c9.36-1.33,18.66-3.01,28.07-3.98
			c8.09-0.83,16.13-2.19,24.23-2.73c11.45-0.76,22.93-1.21,34.4-1.36c16.48-0.21,32.97-0.19,49.43,0.9
			c4.32,0.29,8.7,0.03,12.96,0.66c9.85,1.46,19.78,2.09,29.64,3.53c10.33,1.51,20.67,2.96,30.94,4.84
			c13.87,2.54,27.65,5.58,41.27,9.32c17.55,4.82,35.06,9.77,52.1,16.25c13.61,5.18,27.12,10.52,40.42,16.47
			c14.99,6.7,29.67,14.03,44.05,21.87c14.67,8,29.01,16.67,42.76,26.24c12.95,9.01,26.07,17.77,38.21,27.92
			c3.1,2.59,5.99,5.65,10.41,7.52c13.72-16.12,27.44-32.25,41.44-48.71c-24.37-20.84-50.23-38.94-77.14-55.49
			c-48.28-29.69-99.66-52.65-153.92-68.99c-60.34-18.17-122.12-27.42-185.11-27.77c-74.13-0.42-146.45,10.94-216.71,34.91
			c-65.94,22.5-127.08,54.23-182.57,96.36C290.17,376.2,207.96,500.76,169.52,654.11c-38.25,168.83-16.7,329.38,68.35,480.45
			c55.29,98.2,131.89,176.55,227.79,235.63c94.66,58.32,197.85,90.61,308.85,96.47c115.08,6.08,224.9-15.62,328.07-67.46
			c147.69-74.2,253.69-188.01,317.61-340.27c38.7-92.19,53.89-188.76,48.28-289C1051.24,769.93,634.49,769.93,217.37,769.93z
			 M688.85,386.81c0,40.86,0,81.92,0,122.98c0,41.07,0,82.14,0,123.39c7.56,0,14.88-0.06,22.2,0.01
			c37.64,0.34,75.26-0.71,112.89-0.99c34.15-0.26,68.31-0.06,102.47-0.09c1.78,0,3.62,0.3,5.29-0.29
			c0.88-6.35,0.65-52.22-0.24-55.32c-1.96,0.57-3.98,0.35-5.97,0.33c-34.14-0.24-68.29,0.32-102.44-0.56
			c-24.81-0.64-49.64-0.29-74.46-0.43c-1.75-0.01-3.64,0.58-5.41-0.73c0-10.48,0-20.97,0-31.46c0-10.5-0.01-20.99,0-31.49
			c0.01-10.33-0.03-20.66,0.1-30.99c0.14-10.49,0.54-20.97,0.69-31.46c0.15-10.49,0.18-20.99,0.17-31.48
			c-0.01-10.41,0.17-20.83-0.09-31.42C725.49,386.81,707.51,386.81,688.85,386.81z"/>
		<path d="M217.37,769.93c417.12,0,833.87,0,1251.1,0c5.61,100.24-9.58,196.82-48.28,289c-63.92,152.26-169.93,266.07-317.61,340.27
			c-103.17,51.84-212.99,73.53-328.07,67.46c-111.01-5.86-214.19-38.15-308.85-96.47c-95.9-59.08-172.51-137.44-227.79-235.63
			c-85.06-151.07-106.61-311.62-68.35-480.45c38.44-153.35,120.65-277.91,246.51-373.48c55.49-42.13,116.62-73.87,182.57-96.36
			c70.26-23.97,142.58-35.33,216.71-34.91c62.99,0.36,124.77,9.6,185.11,27.77c54.26,16.34,105.65,39.31,153.92,68.99
			c26.91,16.55,52.78,34.65,77.14,55.49c-14.01,16.46-27.72,32.59-41.44,48.71c-4.42-1.87-7.31-4.93-10.41-7.52
			c-12.13-10.15-25.26-18.9-38.21-27.92c-13.75-9.57-28.09-18.24-42.76-26.24c-14.37-7.84-29.06-15.17-44.05-21.87
			c-13.3-5.95-26.82-11.3-40.42-16.47c-17.04-6.48-34.55-11.43-52.1-16.25c-13.61-3.74-27.39-6.77-41.27-9.32
			c-10.26-1.88-20.6-3.34-30.94-4.84c-9.86-1.44-19.79-2.07-29.64-3.53c-4.26-0.63-8.64-0.38-12.96-0.66
			c-16.46-1.09-32.95-1.11-49.43-0.9c-11.47,0.15-22.95,0.6-34.4,1.36c-8.1,0.54-16.15,1.89-24.23,2.73
			c-9.41,0.97-18.72,2.64-28.07,3.98c-9.68,1.38-19.23,3.38-28.77,5.45c-23.98,5.2-47.57,11.93-70.7,20.05
			c-14.99,5.26-29.75,11.25-44.26,17.84c-13.6,6.18-27,12.75-40.14,19.84c-10.67,5.75-21.12,11.89-31.45,18.25
			c-12.3,7.57-24.33,15.59-35.91,24.13c-12.11,8.92-24.1,18.12-35.32,28.21c-2.93,2.64-6.01,5.11-8.95,7.74
			c-5.68,5.09-11.43,10.12-16.94,15.4c-6.33,6.07-12.7,12.14-18.54,18.66c-4.76,5.31-9.73,10.43-14.44,15.8
			c-7.32,8.34-14.38,16.89-21.38,25.48c-9.32,11.43-17.98,23.37-26.22,35.59c-6.3,9.34-12.61,18.69-18.49,28.3
			c-4.75,7.76-8.88,15.89-13.23,23.89c-6.58,12.09-12.56,24.5-18.29,37.01c-5.58,12.19-10.62,24.6-15.26,37.2
			c-4.41,11.97-8.58,24.02-12.26,36.23c-4.02,13.33-7.37,26.83-10.54,40.39c-2.63,11.28-4.75,22.65-6.63,34.06
			c-1.32,8.01-2.04,16.11-3.35,24.12c-1.4,8.55-1.61,17.2-2.76,25.76C216.99,764.57,216.96,766.88,217.37,769.93z M215.87,837.32
			c0.83,6.87,0.81,13.22,1.5,19.47c0.97,8.74,1.22,17.54,2.68,26.23c1.32,7.84,1.99,15.8,3.39,23.62
			c1.68,9.44,3.49,18.86,5.44,28.26c4.16,20.15,9.76,39.86,15.98,59.43c7.39,23.28,16.47,45.88,26.91,67.93
			c5.32,11.24,10.7,22.48,16.77,33.33c7.42,13.27,14.98,26.49,23.55,39.1c5.4,7.94,10.74,15.92,16.4,23.68
			c8.28,11.36,16.89,22.47,25.92,33.25c8.42,10.05,17.16,19.8,26.2,29.29c8.13,8.54,16.72,16.59,25.26,24.71
			c9.63,9.16,19.71,17.77,29.95,26.18c11.63,9.55,23.67,18.59,36.07,27.14c6.7,4.62,13.34,9.38,20.31,13.56
			c14.63,8.78,29.14,17.79,44.48,25.36c10.06,4.97,20.06,10.06,30.31,14.65c14.09,6.29,28.31,12.21,42.88,17.3
			c10.32,3.61,20.68,7.1,31.17,10.18c13.84,4.05,27.76,7.77,41.85,10.84c6.8,1.48,13.65,2.82,20.51,4.02
			c8.32,1.45,16.68,2.63,25.02,4.01c6.22,1.03,12.5,1.43,18.74,2.2c4.64,0.57,9.28,0.71,13.91,1.13c6.45,0.58,12.9,1.47,19.36,1.66
			c11.99,0.36,23.99,0.59,35.98,0.36c9.64-0.19,19.3,0.13,28.94-0.87c6.27-0.65,12.59-0.6,18.87-1.37
			c7.74-0.95,15.58-1.13,23.27-2.34c11.29-1.78,22.58-3.53,33.84-5.53c16.03-2.84,31.8-6.64,47.46-10.95
			c18.52-5.1,36.75-11.07,54.72-17.93c25.94-9.91,51.01-21.64,75.31-34.99c13.2-7.26,26.22-14.91,38.67-23.45
			c9.26-6.36,18.83-12.34,27.67-19.23c11.1-8.65,22.32-17.15,32.9-26.49c8.31-7.34,16.45-14.86,24.66-22.32
			c3.44-3.13,6.75-6.41,9.97-9.76c4.84-5.02,9.46-10.25,14.34-15.22c8.7-8.88,16.53-18.51,24.47-28.04
			c7.63-9.17,14.84-18.68,21.86-28.32c10.95-15.04,21.14-30.6,30.54-46.64c11.49-19.61,21.74-39.9,30.99-60.67
			c7.69-17.26,14.29-34.95,20.34-52.86c6.9-20.46,12.34-41.3,17.11-62.33c1.03-4.52,1.83-9.1,2.65-13.66
			c1.29-7.17,2.64-14.33,3.73-21.53c1.21-8.03,2.25-16.1,3.19-24.17c0.65-5.6,1.06-11.22,1.51-16.84c0.53-6.46,1-12.92,1.46-19.38
			c0.05-0.64,0.04-1.35-0.81-1.98C1008.39,837.32,612.5,837.32,215.87,837.32z"/>
		<path d="M688.85,386.81c18.67,0,36.64,0,55.21,0c0.26,10.59,0.08,21.01,0.09,31.42c0.01,10.49-0.02,20.99-0.17,31.48
			c-0.15,10.49-0.55,20.97-0.69,31.46c-0.14,10.33-0.09,20.66-0.1,30.99c-0.01,10.5,0,20.99,0,31.49c0,10.49,0,20.98,0,31.46
			c1.77,1.31,3.66,0.72,5.41,0.73c24.82,0.14,49.66-0.21,74.46,0.43c34.15,0.88,68.29,0.32,102.44,0.56c1.99,0.01,4,0.24,5.97-0.33
			c0.89,3.1,1.11,48.97,0.24,55.32c-1.67,0.59-3.51,0.29-5.29,0.29c-34.16,0.03-68.31-0.16-102.47,0.09
			c-37.63,0.28-75.26,1.33-112.89,0.99c-7.32-0.07-14.64-0.01-22.2-0.01c0-41.25,0-82.32,0-123.39
			C688.85,468.73,688.85,427.67,688.85,386.81z"/>
		<path class="st0" d="M215.87,837.32c396.63,0,792.52,0,1188.17,0c0.85,0.64,0.86,1.34,0.81,1.98c-0.46,6.46-0.94,12.92-1.46,19.38
			c-0.46,5.62-0.86,11.25-1.51,16.84c-0.94,8.07-1.98,16.13-3.19,24.17c-1.09,7.2-2.44,14.36-3.73,21.53
			c-0.82,4.57-1.62,9.14-2.65,13.66c-4.77,21.03-10.2,41.87-17.11,62.33c-6.05,17.91-12.65,35.6-20.34,52.86
			c-9.26,20.77-19.5,41.06-30.99,60.67c-9.4,16.04-19.58,31.61-30.54,46.64c-7.02,9.64-14.22,19.16-21.86,28.32
			c-7.94,9.53-15.77,19.16-24.47,28.04c-4.88,4.98-9.5,10.2-14.34,15.22c-3.23,3.35-6.53,6.63-9.97,9.76
			c-8.2,7.46-16.34,14.98-24.66,22.32c-10.57,9.34-21.8,17.84-32.9,26.49c-8.85,6.89-18.41,12.87-27.67,19.23
			c-12.45,8.54-25.46,16.2-38.67,23.45c-24.3,13.35-49.37,25.08-75.31,34.99c-17.97,6.86-36.2,12.83-54.72,17.93
			c-15.66,4.31-31.44,8.11-47.46,10.95c-11.26,1.99-22.55,3.75-33.84,5.53c-7.69,1.21-15.53,1.4-23.27,2.34
			c-6.28,0.77-12.61,0.72-18.87,1.37c-9.64,1-19.3,0.68-28.94,0.87c-11.99,0.23-23.99,0.01-35.98-0.36
			c-6.46-0.2-12.91-1.08-19.36-1.66c-4.63-0.41-9.27-0.56-13.91-1.13c-6.24-0.76-12.52-1.17-18.74-2.2
			c-8.33-1.37-16.7-2.56-25.02-4.01c-6.86-1.19-13.7-2.53-20.51-4.02c-14.09-3.07-28.01-6.79-41.85-10.84
			c-10.5-3.08-20.85-6.57-31.17-10.18c-14.56-5.09-28.79-11.01-42.88-17.3c-10.26-4.58-20.25-9.68-30.31-14.65
			c-15.33-7.57-29.84-16.58-44.48-25.36c-6.97-4.18-13.61-8.94-20.31-13.56c-12.4-8.55-24.44-17.59-36.07-27.14
			c-10.24-8.41-20.32-17.02-29.95-26.18c-8.54-8.12-17.13-16.17-25.26-24.71c-9.04-9.49-17.78-19.24-26.2-29.29
			c-9.03-10.78-17.64-21.89-25.92-33.25c-5.66-7.76-11-15.74-16.4-23.68c-8.57-12.6-16.13-25.82-23.55-39.1
			c-6.07-10.84-11.45-22.09-16.77-33.33c-10.44-22.05-19.51-44.66-26.91-67.93c-6.22-19.58-11.82-39.29-15.98-59.43
			c-1.94-9.4-3.75-18.82-5.44-28.26c-1.4-7.83-2.07-15.78-3.39-23.62c-1.46-8.69-1.7-17.5-2.68-26.23
			C216.68,850.53,216.7,844.19,215.87,837.32z M931.86,1006c-18.48,0-36.57,0-54.38,0c-0.85,1.13-0.68,1.97-0.67,2.78
			c0.17,18.48,0.41,36.96,0.75,55.44c0.56,30.14,0.22,60.3,0.23,90.45c0,4.72-1.53,9.24-3.62,13.25
			c-3.52,6.74-7.9,12.88-14.33,17.49c-8.99,6.46-18.94,10.25-29.82,10.31c-45.81,0.26-91.62,0.1-137.43,0.12
			c-1.11,0-2.32-0.43-3.47,0.57c0,18.08,0,36.28,0,54.73c1.97,0,3.62,0,5.26,0c43.31,0,86.62-0.05,129.93,0.05
			c7.67,0.02,15.29-0.63,22.69-2.24c16.14-3.5,30.99-9.89,44.31-20.07c11.97-9.15,21.64-20.01,28.89-33.11
			c7.92-14.3,11.95-29.64,11.96-46.01c0.01-46.64,0.01-93.29-0.01-139.93C932.14,1008.56,932.52,1007.2,931.86,1006z"/>
		<path d="M931.86,1006c0.66,1.2,0.28,2.55,0.28,3.85c0.02,46.64,0.02,93.29,0.01,139.93c0,16.37-4.04,31.71-11.96,46.01
			c-7.25,13.1-16.93,23.96-28.89,33.11c-13.31,10.18-28.17,16.57-44.31,20.07c-7.39,1.6-15.02,2.25-22.69,2.24
			c-43.31-0.1-86.62-0.05-129.93-0.05c-1.64,0-3.29,0-5.26,0c0-18.46,0-36.65,0-54.73c1.15-1.01,2.36-0.57,3.47-0.57
			c45.81-0.02,91.62,0.13,137.43-0.12c10.88-0.06,20.83-3.85,29.82-10.31c6.43-4.61,10.81-10.75,14.33-17.49
			c2.1-4.01,3.62-8.53,3.62-13.25c-0.01-30.15,0.33-60.31-0.23-90.45c-0.34-18.48-0.58-36.96-0.75-55.44
			c-0.01-0.81-0.17-1.66,0.67-2.78C895.29,1006,913.38,1006,931.86,1006z"/>
	</g>
</g>
</svg>
